<svg width="900" height="500" viewBox="0 0 900 500" fill="none" xmlns="http://www.w3.org/2000/svg">
<g clip-path="url(#clip0_11_2)">
<path d="M900 0H0V500H900V0Z" fill="#005DFF"/>
<path d="M472.639 274.285L493.819 274.093C496.179 274.072 498.076 272.141 498.054 269.78L497.858 248.186C497.837 245.826 495.906 243.929 493.545 243.951L475.211 244.118C475.211 244.118 475.237 246.95 475.241 247.416C475.308 254.767 475.389 263.747 475.456 271.098C475.484 274.069 472.639 274.285 472.639 274.285Z" fill="#005DFF" stroke="#5A96FC" stroke-miterlimit="10"/>
<path d="M475.457 271.098C475.484 274.069 472.64 274.285 472.64 274.285C472.64 274.285 469.672 274.634 469.64 271.15L473.431 271.116C473.431 271.116 475.456 270.995 475.457 271.098Z" fill="#005DFF" stroke="#5A96FC" stroke-miterlimit="10"/>
<path d="M494.561 269.145L479.64 269.28" stroke="#5A96FC" stroke-miterlimit="10" stroke-linecap="round" stroke-linejoin="round"/>
<path d="M494.531 265.783L479.609 265.919" stroke="#5A96FC" stroke-miterlimit="10" stroke-linecap="round" stroke-linejoin="round"/>
<path d="M494.453 257.223L479.531 257.359" stroke="#5A96FC" stroke-miterlimit="10" stroke-linecap="round" stroke-linejoin="round"/>
<path d="M494.423 253.869L479.501 254.004" stroke="#5A96FC" stroke-miterlimit="10" stroke-linecap="round" stroke-linejoin="round"/>
<path d="M494.492 261.506L479.57 261.642" stroke="#5A96FC" stroke-miterlimit="10" stroke-linecap="round" stroke-linejoin="round"/>
<path d="M480.45 250.428L488.184 250.358C488.938 250.351 489.543 249.734 489.537 248.981C489.53 248.227 488.913 247.622 488.16 247.629L480.426 247.699C479.672 247.706 479.067 248.323 479.074 249.076C479.079 249.83 479.696 250.435 480.45 250.428Z" fill="#5A96FC"/>
<path d="M745.412 341.46H716.737C714.634 341.46 712.929 339.755 712.929 337.652V313.682C712.929 311.579 714.634 309.874 716.737 309.874H745.412C747.515 309.874 749.22 311.579 749.22 313.682V337.652C749.22 339.755 747.515 341.46 745.412 341.46Z" fill="#5A96FC"/>
<path d="M720.904 325.877V336.59" stroke="#005DFF" stroke-miterlimit="10"/>
<path d="M724.895 325.877V336.59" stroke="#005DFF" stroke-miterlimit="10"/>
<path d="M728.466 327.768V336.59" stroke="#005DFF" stroke-miterlimit="10"/>
<path d="M731.827 334.49V336.59" stroke="#005DFF" stroke-miterlimit="10"/>
<path d="M735.818 328.608V336.59" stroke="#005DFF" stroke-miterlimit="10"/>
<path d="M739.179 316.215V336.59" stroke="#005DFF" stroke-miterlimit="10"/>
<path d="M742.75 316.215V336.59" stroke="#005DFF" stroke-miterlimit="10"/>
<path d="M718.339 328.856C720.317 324.899 722.644 323.202 724.475 323.987C728.886 325.878 730.357 333.44 732.877 333.23C738.308 332.777 733.927 316.215 742.96 315.375" stroke="white" stroke-miterlimit="10"/>
<path d="M557.236 368.348L557.263 361.679" stroke="#5A96FC" stroke-miterlimit="10"/>
<path d="M565.811 368.382L565.867 354.091" stroke="#5A96FC" stroke-miterlimit="10"/>
<path d="M573.115 368.411L573.175 353.168" stroke="#5A96FC" stroke-miterlimit="10"/>
<path d="M581.372 368.443L581.453 347.802" stroke="#5A96FC" stroke-miterlimit="10"/>
<path d="M588.676 368.472L588.787 340.176" stroke="#5A96FC" stroke-miterlimit="10"/>
<path d="M595.027 368.497L595.167 332.919" stroke="#5A96FC" stroke-miterlimit="10"/>
<path d="M605.602 377.81L542.857 377.562C540.655 377.553 538.877 375.761 538.885 373.559L539.073 325.885C539.082 323.683 540.874 321.905 543.076 321.913L605.821 322.161C608.023 322.17 609.802 323.962 609.793 326.164L609.605 373.838C609.597 376.041 607.805 377.819 605.602 377.81Z" stroke="#5A96FC" stroke-miterlimit="10"/>
<path d="M551.517 366.598L568.535 351.273C569.27 350.611 570.395 350.639 571.096 351.336L573.447 353.674C574.199 354.422 575.423 354.392 576.138 353.608L594.637 333.331" stroke="white" stroke-miterlimit="10"/>
<path d="M547.478 327.656L547.32 367.712C547.312 369.617 548.851 371.167 550.756 371.175L599.631 371.368" stroke="white" stroke-miterlimit="10"/>
<path d="M595.803 334.215L593.162 332.167C592.92 331.979 592.96 331.603 593.236 331.47L596.604 329.853C596.91 329.706 597.252 329.972 597.186 330.305L596.458 333.97C596.4 334.27 596.045 334.403 595.803 334.215Z" fill="white"/>
<path d="M815.776 183.11H757.506L748.448 190.121L747.882 183.11H733.273C731.08 183.11 729.302 181.332 729.302 179.139V163.213C729.302 161.02 731.08 159.242 733.273 159.242H815.776C817.969 159.242 819.747 161.02 819.747 163.213V179.139C819.747 181.332 817.969 183.11 815.776 183.11Z" fill="#5A96FC"/>
<path d="M765.432 175.118H814.12" stroke="#B3CEFD" stroke-miterlimit="10"/>
<path d="M765.432 170.589H814.12" stroke="#B3CEFD" stroke-miterlimit="10"/>
<path d="M765.432 165.777H814.12" stroke="#B3CEFD" stroke-miterlimit="10"/>
<path d="M758.184 179.669H736.189C735.206 179.669 734.408 178.872 734.408 177.888V164.465C734.408 163.482 735.205 162.684 736.189 162.684H758.184C759.167 162.684 759.965 163.481 759.965 164.465V177.888C759.965 178.872 759.168 179.669 758.184 179.669Z" fill="#B3CEFD"/>
<path d="M477.929 340.134C474.908 341.15 474.773 345.038 476.081 349.643C477.389 354.248 486.722 372.008 490.824 371.35C494.926 370.692 488.813 349.534 488.813 349.534L477.929 340.134Z" fill="black"/>
<path d="M541.718 318.026C539.111 319.86 540.09 323.626 542.654 327.667C545.219 331.709 559.223 346.076 562.968 344.277C566.713 342.478 554.828 323.937 554.828 323.937L541.718 318.026Z" fill="black"/>
<path d="M527.633 281.765C527.633 281.765 548.324 286.179 549.79 294.839C551.019 302.097 541.41 317.784 541.41 317.784C541.41 317.784 557.91 331.523 559.197 331.419C560.957 330.431 566.421 324.767 570.758 316.662C575.315 308.145 578.627 296.932 575.089 285.615C566.674 258.701 539.297 256.456 539.297 256.456L527.633 281.765Z" fill="#FF7E1A"/>
<path d="M559.197 331.42C560.957 330.432 566.421 324.768 570.758 316.663C575.315 308.146 578.627 296.933 575.089 285.616C566.674 258.702 539.297 256.457 539.297 256.457" stroke="black" stroke-miterlimit="10" stroke-linecap="round" stroke-linejoin="round"/>
<path d="M527.633 281.765C527.633 281.765 548.324 286.179 549.79 294.839C551.019 302.097 541.41 317.784 541.41 317.784" stroke="black" stroke-miterlimit="10" stroke-linecap="round" stroke-linejoin="round"/>
<path d="M541.28 260.575C541.291 264.907 532.88 279.296 528.629 282.411C528.629 282.411 529.419 309.122 521.885 327.552C514.351 345.982 497.193 355.845 493.658 356.792C493.658 356.792 485.785 355.585 481.148 348.954C476.51 342.324 479.024 336.902 479.024 336.902C479.024 336.902 491.073 326.125 492.419 323.728C497.091 315.413 495.744 266.452 495.744 266.452C495.744 266.452 510.831 267.438 521.368 265.823C531.903 264.209 541.28 260.575 541.28 260.575Z" fill="#FF7E1A"/>
<path d="M479.022 336.904C479.022 336.904 491.071 326.127 492.417 323.73C497.089 315.415 495.742 266.454 495.742 266.454" stroke="black" stroke-miterlimit="10" stroke-linecap="round" stroke-linejoin="round"/>
<path d="M529.042 196.008C535.565 193.532 546.478 190.791 553.613 180.575C559.943 171.511 563.846 157.445 567.752 146.219C571.261 136.133 572.652 135.517 573.614 135.729C574.576 135.94 574.522 141.372 573.886 143.19C573.886 143.19 576.342 136.951 577.411 136.948C578.48 136.945 578.754 141.163 577.747 144.532C577.747 144.532 580.391 139.395 581.887 139.605C582.779 139.73 581.377 145.842 581.377 145.842C581.377 145.842 584.281 140.355 585.059 142.265C585.652 143.722 583.405 152.2 583.405 152.2C583.405 152.2 578.458 178.905 569.564 192.198C562.751 202.379 554.929 208.712 542.13 212.795C541.549 212.978 529.042 196.008 529.042 196.008Z" fill="white" stroke="black" stroke-miterlimit="10" stroke-linecap="round" stroke-linejoin="round"/>
<path d="M526.61 196.106C526.61 196.106 531.352 194.76 535.075 192.873C540.369 190.19 545.931 186.771 545.931 186.771C545.931 186.771 554.874 202.281 556.316 209.402C556.316 209.402 545.097 216.645 540.423 215.524L526.61 196.106Z" fill="#FFE873"/>
<path d="M525.416 196.444C527.791 195.249 529.041 196.008 529.041 196.008C529.041 196.008 540.191 207.942 543.958 216.198C547.725 224.454 554.142 245.903 554.168 256.011C554.168 256.011 529.601 270.155 495.685 266.744C495.685 266.744 496.079 206.165 500.705 203.135C502.569 201.914 525.416 196.444 525.416 196.444Z" fill="#FFE873"/>
<path d="M498.242 236.99C497.866 240.753 512.917 255.428 521.195 255.804C529.473 256.18 549.416 250.912 551.673 245.268C551.673 245.268 524.957 250.536 513.293 244.892C501.628 239.248 498.242 236.99 498.242 236.99Z" fill="black"/>
<path d="M487.867 219.449C488.138 225.344 495.137 241.441 511.553 248.024C521.57 252.041 535.401 252.828 554.349 245.067C554.963 244.816 562.029 242.359 563.888 239.725C565.653 237.224 559.377 239.376 560.146 239.013C561.182 238.523 562.779 237.851 563.772 237.194C565.273 236.2 566.835 234.419 565.231 233.889C563.627 233.359 560.098 235.003 560.098 235.003C560.098 235.003 565.891 232.079 564.818 230.479C563.745 228.879 557.876 231.416 557.876 231.416C557.876 231.416 564.612 227.896 562.554 226.656C561.374 225.945 558.857 226.982 557.166 227.572C554.637 228.454 552.026 229.846 550.182 230.627C550.182 230.627 554.448 225.584 552.684 225.107C550.92 224.63 544.898 230.576 543.672 231.701C542.446 232.826 521.241 234.429 514.22 225.739C507.199 217.049 507.04 214.284 504.472 213.009C501.906 211.734 487.471 210.849 487.867 219.449Z" fill="white" stroke="black" stroke-miterlimit="10"/>
<path d="M494.72 238.003C494.72 238.003 506.376 229.63 514.323 225.896C514.323 225.896 505.859 212.366 505.618 201.59C505.618 201.59 494.855 203.841 490.766 209.779C487.091 215.117 482.68 223.895 494.72 238.003Z" fill="#FFE873"/>
<path d="M529.379 187.904C531.441 183.009 522.222 170.291 519.77 167.408C517.318 164.525 508.878 166.621 504.887 170.187C500.896 173.753 499.586 183.091 499.586 183.091L501.724 185.821C501.353 186.3 501.133 186.943 501.205 187.714C501.355 189.318 504.099 191.783 506.779 192.275L509.51 195.762L509.432 200.825C509.432 200.825 511.219 210.291 522.183 207.14C530.951 204.62 526.452 198.226 526.193 197.458L525.8 191.906C527.4 190.72 528.763 189.366 529.379 187.904Z" fill="white" stroke="black" stroke-miterlimit="10"/>
<path d="M504.782 185.425C504.782 185.425 506.973 187.646 508.131 187.279C509.121 186.966 509.629 185.908 509.462 184.6C509.218 182.689 504.115 177.231 504.115 177.231C504.115 177.231 504.305 171.073 512.473 167.898C517.639 165.89 518.782 167.377 518.782 167.377C518.782 167.377 524.461 158.706 521.602 155.049C518.743 151.392 513.329 151.854 508.373 156.508C504.493 160.152 500.049 165.283 500.304 169.68C500.304 169.68 495.215 169.897 494.37 173.848C493.525 177.8 497.478 179.052 497.478 179.052C497.478 179.052 494.383 178.734 494.552 181.258C494.721 183.782 498.033 189.189 502.592 188.607L504.782 185.425Z" fill="black"/>
<path d="M619.973 246.646C610.82 249.599 589.765 265.478 606.023 311.061C606.604 312.691 608.741 313.088 609.859 311.768C613.871 307.032 619.952 293.651 636.952 286.98L619.973 246.646Z" fill="#5A96FC"/>
<path d="M670.048 231.046C679.61 230.014 709.131 234.233 712.854 282.485C712.987 284.21 711.197 285.444 709.638 284.694C704.045 282.003 691.776 277.498 673.533 278.332L670.048 231.046Z" fill="#5A96FC"/>
<path d="M638.107 294.089C627.186 278.254 611.844 252.831 600.771 221.637C590.384 192.376 586.417 165.506 588.978 141.775C593.938 95.8144 605.999 80.1174 609.041 79.7454C609.151 79.7104 609.276 79.6934 609.421 79.6934C611.863 79.6934 629.343 87.6664 653.443 125.559C678.753 165.355 681.012 205.214 676.649 285.201L676.628 285.577L638.299 294.368L638.107 294.089Z" fill="#005DFF"/>
<path d="M609.42 80.1943C612.238 80.1943 629.809 89.3313 653.021 125.829C678.655 166.135 680.425 206.803 676.15 285.175L638.518 293.806C610.019 252.483 583.963 192.895 589.475 141.83C594.639 93.9793 607.3 80.2393 609.148 80.2393C609.213 80.2093 609.304 80.1943 609.42 80.1943ZM609.42 79.1943C609.234 79.1943 609.067 79.2163 608.915 79.2613C606.982 79.6173 603.277 84.2163 599.637 92.6953C596.063 101.021 591.227 116.286 588.482 141.722C585.913 165.528 589.889 192.472 600.302 221.805C611.393 253.05 626.759 278.514 637.697 294.373L638.082 294.932L638.743 294.78L676.375 286.149L677.109 285.981L677.15 285.229C681.519 205.129 679.249 165.204 653.866 125.292C631.495 90.1193 613.459 79.1943 609.42 79.1943Z" fill="white"/>
<path d="M633.948 288.182C633.948 288.182 660.079 278.57 677.2 277.97" stroke="white" stroke-miterlimit="10"/>
<path d="M653.021 125.83C628.97 87.7547 610.8 79.4897 609.148 80.2397C607.54 80.2397 597.014 90.5707 591.542 124.84C590.725 129.955 590.021 135.603 589.476 141.83C589.476 141.83 595.031 142.32 603.658 141.54C608.834 141.072 615.117 140.146 621.968 138.383C643.726 132.785 653.021 125.83 653.021 125.83Z" fill="#5A96FC"/>
<path d="M646.613 229.497C643.275 225.163 648.086 263.538 653.053 285.141C655.428 295.47 660.423 301.512 661.328 301.611C662.233 301.71 663.469 294.753 661.73 283.952C659.728 271.524 653.029 237.828 646.613 229.497Z" fill="#5A96FC"/>
<path d="M630.155 197.667C642.27 197.667 652.09 187.846 652.09 175.732C652.09 163.618 642.27 153.797 630.155 153.797C618.041 153.797 608.22 163.618 608.22 175.732C608.22 187.846 618.041 197.667 630.155 197.667Z" fill="#5A96FC"/>
<path d="M623.608 160.712C623.608 160.712 639.22 156.202 645.811 167.997" stroke="white" stroke-miterlimit="10" stroke-linecap="round" stroke-linejoin="round"/>
<path d="M568.555 151.625C568.555 151.625 570.034 145.415 571.512 145.119C572.99 144.823 574.129 152.502 572.355 154.868" stroke="black" stroke-miterlimit="10" stroke-linecap="round" stroke-linejoin="round"/>
<path d="M545.931 186.77C545.931 186.77 555.634 203.887 556.316 209.401" stroke="black" stroke-miterlimit="10" stroke-linecap="round" stroke-linejoin="round"/>
<path d="M505.743 214.197C508.135 217.785 512.32 222.269 514.323 225.894L494.72 238.001" stroke="black" stroke-miterlimit="10" stroke-linecap="round" stroke-linejoin="round"/>
<path d="M526.61 196.104C529.897 198.477 539.164 205.821 543.536 214.914" stroke="black" stroke-miterlimit="10" stroke-linecap="round" stroke-linejoin="round"/>
<path d="M495.686 266.744C495.686 266.744 523.783 271.668 554.169 256.011" stroke="black" stroke-miterlimit="10" stroke-linecap="round" stroke-linejoin="round"/>
<path d="M507.238 202.838C507.238 202.838 511.722 216.291 527.567 207.322" stroke="black" stroke-miterlimit="10" stroke-linecap="round" stroke-linejoin="round"/>
<path d="M528.628 282.411C528.486 282.507 532.79 276.289 532.79 276.289C532.79 276.289 539.227 271.928 538.615 262.948" stroke="black" stroke-miterlimit="10" stroke-linecap="round" stroke-linejoin="round"/>
<path d="M493.657 356.793C493.657 356.793 515.631 347.8 521.884 327.553C528.137 307.306 528.836 289.842 528.836 289.842" stroke="black" stroke-miterlimit="10" stroke-linecap="round" stroke-linejoin="round"/>
<path d="M644.076 292.197C644.076 292.197 668.165 377.286 668.859 391.51Z" fill="#005DFF"/>
<path d="M644.076 292.197C644.076 292.197 668.165 377.286 668.859 391.51" stroke="white" stroke-miterlimit="10"/>
<path d="M671.137 286.646C671.137 286.646 684.341 332.277 689.545 341.297Z" fill="#005DFF"/>
<path d="M671.137 286.646C671.137 286.646 684.341 332.277 689.545 341.297" stroke="white" stroke-miterlimit="10"/>
<path d="M662.142 412.4C648.63 403.713 661.35 384.266 675.192 393.503Z" fill="#005DFF"/>
<path d="M662.142 412.4C648.63 403.713 661.35 384.266 675.192 393.503" stroke="white" stroke-miterlimit="10"/>
<path d="M665.421 309.174C665.421 309.174 687.684 383.929 698.523 400.403Z" fill="#005DFF"/>
<path d="M665.421 309.174C665.421 309.174 687.684 383.929 698.523 400.403" stroke="white" stroke-miterlimit="10"/>
<path d="M796.208 284.165L809.736 303.303C815.622 311.63 825.006 316.965 835.199 317.277C837.741 317.355 840.034 317.185 841.629 316.593C843.574 315.871 843.72 318.743 846.017 320.346C846.017 320.346 857.604 330.246 850.849 333.824C842.088 338.465 819.068 340.124 810.05 336.682C794.252 330.653 788.034 318.458 785.197 313.103C783.238 309.404 781.139 307.024 781.139 307.024L796.208 284.165Z" fill="black"/>
<path d="M744.673 300.406C744.673 300.406 762.239 339.707 775.58 349.999C787.022 358.825 806.534 362.425 814.183 360.527L810.796 344.246L815.507 339.617C815.507 339.617 811.912 338.967 807.463 337.91C798.777 335.846 791.313 330.315 786.746 322.643L781.766 314.276C781.766 314.276 804.028 298.87 795.439 283.062L765.979 295.607L744.673 300.406Z" fill="black"/>
<path d="M781.044 206.639L779.325 204.032C779.325 204.032 770.41 202.447 771.004 200.664C771.598 198.881 776.749 199.079 776.749 199.079C776.749 199.079 771.796 192.343 771.796 189.966C771.796 187.589 775.956 189.174 776.947 190.758C776.947 190.758 783.572 187.241 787.902 189.52C791.666 191.501 796.042 201.049 796.042 201.049L781.044 206.639Z" fill="white" stroke="black" stroke-miterlimit="10" stroke-linecap="round" stroke-linejoin="round"/>
<path d="M675.829 231.332C673.055 226.775 670.761 219.73 672.148 216.362C673.535 212.994 683.376 208.987 683.376 208.987C683.376 208.987 682.385 205.025 683.772 202.845C685.159 200.666 690.051 215.461 692.261 222.328L675.829 231.332Z" fill="white" stroke="black" stroke-miterlimit="10" stroke-linecap="round" stroke-linejoin="round"/>
<path d="M751.567 227.255L751.963 220.558C751.963 220.558 745.935 214.018 740.925 213.395C735.915 212.771 728.243 215.676 727.889 219.229C727.535 222.781 727.846 234.633 732.073 237.323C733.491 238.225 735.491 238.853 737.523 239.295C738.027 240.39 739.741 244.029 740.794 244.906C742.198 246.076 756.87 238.888 757.104 238.186C757.336 237.49 754.577 235.066 751.567 227.255Z" fill="white" stroke="black" stroke-miterlimit="10" stroke-linecap="round" stroke-linejoin="round"/>
<path d="M731.717 219.591C729.198 218.715 721.529 217.51 722.735 214.662C723.94 211.814 726.494 205.545 733.834 207.188C741.174 208.831 751.654 212.033 751.545 216.524C751.545 216.524 752.202 214.552 754.174 216.305C756.146 218.058 757.085 232.683 755.88 235.312C754.675 237.941 745.594 240.467 742.972 239.756C740.349 239.045 738.181 238.323 736.976 235.146L736.1 227.916C736.1 227.916 733.361 227.806 732.704 226.054C732.046 224.302 731.717 219.591 731.717 219.591Z" fill="black"/>
<path d="M780.325 251.946L779.552 250.684C784.428 247.868 793.997 241.854 797.544 236.15C803.156 227.125 797.653 198.196 795.405 198.397C792.322 198.672 779.054 204.479 779.054 204.479C779.626 205.622 782.306 222.45 781.792 223.135C780.006 225.517 768.042 231.899 768.042 231.899C768.042 231.899 744.278 242.835 735.692 245.714C723.849 249.684 720.03 249.759 711.599 244.615C704.613 240.352 692.597 222.181 692.597 222.181C685.861 224.492 676.687 229.476 675.83 231.333C675.83 231.333 678.517 240.468 689.799 254.467C706.99 275.798 731.813 272.951 731.813 272.951C735.957 282.097 750.201 313.811 750.201 313.811C764.373 314.336 799.213 289.033 799.213 289.033L780.325 251.946Z" fill="#FF7E1A"/>
<path d="M676.939 234.943C676.939 234.943 690.113 262.842 710.885 270.261C720.486 273.69 731.812 272.95 731.812 272.95" stroke="black" stroke-miterlimit="10" stroke-linecap="round" stroke-linejoin="round"/>
<path d="M736.099 227.917C737.892 224.521 740.008 226.637 739.797 228.964C739.585 231.292 738.316 235.736 736.623 234.889" fill="white"/>
<path d="M736.099 227.917C737.892 224.521 740.008 226.637 739.797 228.964C739.585 231.292 738.316 235.736 736.623 234.889" stroke="black" stroke-miterlimit="10" stroke-linecap="round" stroke-linejoin="round"/>
<path d="M812.34 339.39C809.652 340.357 805.067 343.928 806.37 348.114C807.673 352.3 812.253 361.38 814.407 363.287C816.561 365.194 820.114 369.027 824.3 367.724C828.486 366.421 829.134 360.825 828.944 359.354C828.201 353.596 822.419 343.953 818.694 340.597C815.924 338.101 813.862 338.843 812.34 339.39Z" fill="#FFE873"/>
<path d="M839.928 317.641C836.489 319.544 855.32 344.866 860.426 340.448C867.376 334.435 857.499 320.927 851.975 314.405C850.091 312.181 847.053 311.882 844.804 313.7L839.928 317.641Z" fill="#FFE873"/>
<path d="M675.829 231.332C675.829 231.332 686.447 222.795 696.286 220.95" stroke="black" stroke-miterlimit="10" stroke-linecap="round" stroke-linejoin="round"/>
<path d="M778.074 205.576C778.074 205.576 786.293 201.362 795.405 198.396" stroke="black" stroke-miterlimit="10" stroke-linecap="round" stroke-linejoin="round"/>
<path d="M778.014 225.435C778.014 225.435 786.375 220.335 790.373 223.102" stroke="black" stroke-miterlimit="10" stroke-linecap="round" stroke-linejoin="round"/>
<path d="M773.769 239.705C774.384 240.627 799.211 289.031 799.211 289.031" stroke="black" stroke-miterlimit="10" stroke-linecap="round" stroke-linejoin="round"/>
<path d="M692.904 257.232C692.904 257.232 696.286 255.387 701.206 257.847C708.377 261.433 706.433 267.686 706.433 267.686" stroke="black" stroke-miterlimit="10" stroke-linecap="round" stroke-linejoin="round"/>
<path d="M794.678 238.783C794.678 238.783 790.066 228.636 799.598 226.791" stroke="black" stroke-miterlimit="10" stroke-linecap="round" stroke-linejoin="round"/>
<path d="M818.694 340.596C815.279 339.942 809.437 345.169 811.282 348.551C813.127 351.933 818.871 366.91 824.301 367.724" stroke="black" stroke-miterlimit="10" stroke-linecap="round" stroke-linejoin="round"/>
<path d="M815.586 348.859L822.965 344.247" stroke="black" stroke-miterlimit="10" stroke-linecap="round" stroke-linejoin="round"/>
<path d="M817.431 352.241L824.81 347.629" stroke="black" stroke-miterlimit="10" stroke-linecap="round" stroke-linejoin="round"/>
<path d="M819.891 355.931L827.27 351.319" stroke="black" stroke-miterlimit="10" stroke-linecap="round" stroke-linejoin="round"/>
<path d="M821.428 359.928L828.807 355.316" stroke="black" stroke-miterlimit="10" stroke-linecap="round" stroke-linejoin="round"/>
<path d="M812.204 360.235C812.204 360.235 805.132 369.767 809.744 368.229C814.356 366.692 812.819 360.542 812.819 360.542" stroke="black" stroke-miterlimit="10" stroke-linecap="round" stroke-linejoin="round"/>
<path d="M844.804 313.7C843.566 314.422 857.3 340.031 860.426 340.448" stroke="black" stroke-miterlimit="10" stroke-linecap="round" stroke-linejoin="round"/>
<path d="M850.023 317.189L853.405 314.422" stroke="black" stroke-miterlimit="10" stroke-linecap="round" stroke-linejoin="round"/>
<path d="M852.175 320.879L855.558 318.111" stroke="black" stroke-miterlimit="10" stroke-linecap="round" stroke-linejoin="round"/>
<path d="M854.02 324.568L857.402 321.801" stroke="black" stroke-miterlimit="10" stroke-linecap="round" stroke-linejoin="round"/>
<path d="M855.865 328.258L859.247 325.491" stroke="black" stroke-miterlimit="10" stroke-linecap="round" stroke-linejoin="round"/>
<path d="M858.017 331.949L861.4 329.181" stroke="black" stroke-miterlimit="10" stroke-linecap="round" stroke-linejoin="round"/>
<path d="M848.793 335.33C848.793 341.787 850.023 342.709 851.253 341.787C852.483 340.865 850.946 335.945 850.946 335.945" stroke="black" stroke-miterlimit="10" stroke-linecap="round" stroke-linejoin="round"/>
<path d="M735.228 242.85C735.228 242.85 736.359 245.113 744.845 242.661C753.331 240.21 758.234 236.25 758.611 233.421" stroke="black" stroke-miterlimit="10" stroke-linecap="round" stroke-linejoin="round"/>
<path d="M674.44 138.828V116.893C674.44 115.577 675.507 114.511 676.822 114.511H709.427C710.743 114.511 711.809 115.578 711.809 116.893V138.828C711.809 140.144 710.742 141.21 709.427 141.21H676.822C675.507 141.21 674.44 140.143 674.44 138.828Z" stroke="#5A96FC" stroke-miterlimit="10"/>
<path d="M711.81 116.893C711.81 115.577 710.743 114.511 709.428 114.511H676.823C675.507 114.511 674.441 115.578 674.441 116.893V118.637H711.729L711.81 116.893Z" fill="#5A96FC"/>
<path d="M690.784 133.573H679.985C679.186 133.573 678.539 132.926 678.539 132.127V123.043C678.539 122.244 679.186 121.597 679.985 121.597H690.784C691.583 121.597 692.23 122.244 692.23 123.043V132.127C692.23 132.925 691.583 133.573 690.784 133.573Z" fill="#5A96FC"/>
<path d="M694.784 122.456H708.214" stroke="#5A96FC" stroke-miterlimit="10" stroke-linecap="round" stroke-linejoin="round"/>
<path d="M694.784 125.943H708.214" stroke="#5A96FC" stroke-miterlimit="10" stroke-linecap="round" stroke-linejoin="round"/>
<path d="M694.784 129.806H708.214" stroke="#5A96FC" stroke-miterlimit="10" stroke-linecap="round" stroke-linejoin="round"/>
<path d="M694.784 133.295H708.214" stroke="#5A96FC" stroke-miterlimit="10" stroke-linecap="round" stroke-linejoin="round"/>
<path d="M679.168 136.783H708.214" stroke="#5A96FC" stroke-miterlimit="10" stroke-linecap="round" stroke-linejoin="round"/>
<path d="M432.123 321.022V307C432.123 306.159 432.805 305.477 433.646 305.477H465.346C466.187 305.477 466.869 306.159 466.869 307V321.022C466.869 321.863 466.187 322.545 465.346 322.545H433.646C432.805 322.545 432.123 321.863 432.123 321.022Z" stroke="#5A96FC" stroke-miterlimit="10"/>
<path d="M466.869 307C466.869 306.159 466.187 305.477 465.346 305.477H433.646C432.805 305.477 432.123 306.159 432.123 307V308.115H466.817L466.869 307Z" fill="#5A96FC"/>
<path d="M442.57 317.663H435.667C435.157 317.663 434.743 317.249 434.743 316.739V310.932C434.743 310.421 435.157 310.008 435.667 310.008H442.57C443.08 310.008 443.494 310.422 443.494 310.932V316.739C443.495 317.249 443.081 317.663 442.57 317.663Z" fill="#5A96FC"/>
<path d="M445.127 310.556H464.57" stroke="#5A96FC" stroke-miterlimit="10" stroke-linecap="round" stroke-linejoin="round"/>
<path d="M445.127 312.785H464.57" stroke="#5A96FC" stroke-miterlimit="10" stroke-linecap="round" stroke-linejoin="round"/>
<path d="M445.127 315.255H464.57" stroke="#5A96FC" stroke-miterlimit="10" stroke-linecap="round" stroke-linejoin="round"/>
<path d="M445.127 317.484H464.57" stroke="#5A96FC" stroke-miterlimit="10" stroke-linecap="round" stroke-linejoin="round"/>
<path d="M435.145 319.715H464.57" stroke="#5A96FC" stroke-miterlimit="10" stroke-linecap="round" stroke-linejoin="round"/>
<path d="M426.559 118.267V103.569C426.559 102.687 427.274 101.973 428.155 101.973H450.002C450.884 101.973 451.598 102.688 451.598 103.569V118.267C451.598 119.149 450.883 119.863 450.002 119.863H428.155C427.274 119.863 426.559 119.149 426.559 118.267Z" stroke="#5A96FC" stroke-miterlimit="10"/>
<path d="M451.599 103.569C451.599 102.687 450.884 101.973 450.003 101.973H428.156C427.274 101.973 426.56 102.688 426.56 103.569V104.737H451.546L451.599 103.569Z" fill="#5A96FC"/>
<path d="M437.51 114.746H430.274C429.739 114.746 429.305 114.312 429.305 113.777V107.69C429.305 107.155 429.739 106.721 430.274 106.721H437.51C438.045 106.721 438.479 107.155 438.479 107.69V113.777C438.479 114.312 438.045 114.746 437.51 114.746Z" fill="#5A96FC"/>
<path d="M440.191 107.297H449.189" stroke="#5A96FC" stroke-miterlimit="10" stroke-linecap="round" stroke-linejoin="round"/>
<path d="M440.191 109.634H449.189" stroke="#5A96FC" stroke-miterlimit="10" stroke-linecap="round" stroke-linejoin="round"/>
<path d="M440.191 112.222H449.189" stroke="#5A96FC" stroke-miterlimit="10" stroke-linecap="round" stroke-linejoin="round"/>
<path d="M440.191 114.56H449.189" stroke="#5A96FC" stroke-miterlimit="10" stroke-linecap="round" stroke-linejoin="round"/>
<path d="M429.727 116.896H449.189" stroke="#5A96FC" stroke-miterlimit="10" stroke-linecap="round" stroke-linejoin="round"/>
<path d="M657.422 101.848C658.142 101.848 658.725 101.265 658.725 100.545C658.725 99.8256 658.142 99.2422 657.422 99.2422C656.702 99.2422 656.119 99.8256 656.119 100.545C656.119 101.265 656.702 101.848 657.422 101.848Z" fill="white"/>
<path d="M401.576 263.036C402.296 263.036 402.879 262.452 402.879 261.733C402.879 261.013 402.296 260.43 401.576 260.43C400.857 260.43 400.273 261.013 400.273 261.733C400.273 262.452 400.857 263.036 401.576 263.036Z" fill="white"/>
<path d="M818.703 416.754C819.423 416.754 820.006 416.171 820.006 415.451C820.006 414.732 819.423 414.148 818.703 414.148C817.984 414.148 817.4 414.732 817.4 415.451C817.4 416.171 817.984 416.754 818.703 416.754Z" fill="white"/>
<path d="M639.283 357.936C640.003 357.936 640.586 357.353 640.586 356.633C640.586 355.913 640.003 355.33 639.283 355.33C638.564 355.33 637.98 355.913 637.98 356.633C637.98 357.353 638.564 357.936 639.283 357.936Z" fill="white"/>
<path d="M722.43 73.2495C723.15 73.2495 723.733 72.6662 723.733 71.9466C723.733 71.2269 723.15 70.6436 722.43 70.6436C721.711 70.6436 721.127 71.2269 721.127 71.9466C721.127 72.6662 721.711 73.2495 722.43 73.2495Z" fill="white"/>
<path d="M358.776 339.149C359.496 339.149 360.079 338.566 360.079 337.846C360.079 337.126 359.496 336.543 358.776 336.543C358.057 336.543 357.473 337.126 357.473 337.846C357.473 338.566 358.057 339.149 358.776 339.149Z" fill="white"/>
<path d="M541.275 147.216C541.995 147.216 542.578 146.633 542.578 145.913C542.578 145.194 541.995 144.61 541.275 144.61C540.556 144.61 539.972 145.194 539.972 145.913C539.972 146.633 540.556 147.216 541.275 147.216Z" fill="white"/>
<path d="M869.419 159.301C870.139 159.301 870.722 158.718 870.722 157.998C870.722 157.279 870.139 156.695 869.419 156.695C868.7 156.695 868.116 157.279 868.116 157.998C868.116 158.718 868.7 159.301 869.419 159.301Z" fill="white"/>
<path d="M878.802 275.014C879.522 275.014 880.105 274.431 880.105 273.711C880.105 272.992 879.522 272.408 878.802 272.408C878.082 272.408 877.499 272.992 877.499 273.711C877.499 274.431 878.082 275.014 878.802 275.014Z" fill="white"/>
<path d="M871.222 69.0807V63.0137" stroke="white" stroke-miterlimit="10" stroke-linecap="round" stroke-linejoin="round"/>
<path d="M868.189 66.0469H874.256" stroke="white" stroke-miterlimit="10" stroke-linecap="round" stroke-linejoin="round"/>
<path d="M450.2 199.512V193.445" stroke="white" stroke-miterlimit="10" stroke-linecap="round" stroke-linejoin="round"/>
<path d="M447.166 196.479H453.233" stroke="white" stroke-miterlimit="10" stroke-linecap="round" stroke-linejoin="round"/>
<path d="M393.816 102.974V96.9072" stroke="white" stroke-miterlimit="10" stroke-linecap="round" stroke-linejoin="round"/>
<path d="M390.782 99.9404H396.849" stroke="white" stroke-miterlimit="10" stroke-linecap="round" stroke-linejoin="round"/>
<path d="M507.392 399.101C510.514 399.101 513.045 396.57 513.045 393.448C513.045 390.326 510.514 387.795 507.392 387.795C504.27 387.795 501.739 390.326 501.739 393.448C501.739 396.57 504.27 399.101 507.392 399.101Z" stroke="#5A96FC" stroke-width="2" stroke-miterlimit="10" stroke-linecap="round" stroke-linejoin="round"/>
<path d="M511.145 398.495L515.998 404.715" stroke="#5A96FC" stroke-width="2" stroke-miterlimit="10" stroke-linecap="round" stroke-linejoin="round"/>
<path d="M657.495 407.664C654.138 404.307 645.027 407.184 645.506 413.419Z" fill="#005DFF"/>
<path d="M657.495 407.664C654.138 404.307 645.027 407.184 645.506 413.419" stroke="white" stroke-miterlimit="10"/>
<path d="M894.385 312.232H900" stroke="white" stroke-miterlimit="10"/>
<path d="M746.08 363.754H751.694" stroke="white" stroke-miterlimit="10"/>
<path d="M470.302 145.682H475.916" stroke="white" stroke-miterlimit="10"/>
<path d="M865.082 207.962H870.697" stroke="white" stroke-miterlimit="10"/>
<path d="M834.74 107.063H843.998" stroke="#5A96FC" stroke-miterlimit="10" stroke-linecap="round" stroke-linejoin="round"/>
<path d="M423.14 157.958V163.154" stroke="#5A96FC" stroke-miterlimit="10" stroke-linecap="round" stroke-linejoin="round"/>
<path d="M400.549 372.232V377.428" stroke="#5A96FC" stroke-miterlimit="10" stroke-linecap="round" stroke-linejoin="round"/>
<path d="M765.303 389.439H774.561" stroke="#5A96FC" stroke-miterlimit="10" stroke-linecap="round" stroke-linejoin="round"/>
<path d="M815.245 153.485V149.766" stroke="white" stroke-miterlimit="10" stroke-linecap="round" stroke-linejoin="round"/>
<path d="M823.148 159.992H827.332" stroke="white" stroke-miterlimit="10" stroke-linecap="round" stroke-linejoin="round"/>
<path d="M820.359 155.809L824.078 152.09" stroke="white" stroke-miterlimit="10" stroke-linecap="round" stroke-linejoin="round"/>
<path d="M813.317 93.0027C813.317 99.5787 807.986 104.911 801.409 104.911C794.832 104.911 789.501 99.5797 789.501 93.0027C789.501 86.4267 794.832 81.0947 801.409 81.0947V93.0027H813.317Z" fill="#005DFF" stroke="white" stroke-miterlimit="10" stroke-linecap="round" stroke-linejoin="round"/>
<path d="M817.399 89.0613C817.399 82.4853 812.068 77.1533 805.491 77.1533V89.0613C805.491 89.0613 817.399 89.3743 817.399 89.0613Z" fill="#5A96FC"/>
<path d="M797.352 98.2168L788.83 106.739H772.789" stroke="#5A96FC" stroke-miterlimit="10" stroke-linecap="round" stroke-linejoin="round"/>
<path d="M836.513 76.5108H830.758C830.259 76.5108 829.854 76.1058 829.854 75.6068V71.0769C829.854 70.5779 830.259 70.1729 830.758 70.1729H836.513C837.012 70.1729 837.417 70.5779 837.417 71.0769V75.6068C837.417 76.1068 837.012 76.5108 836.513 76.5108Z" fill="#5A96FC"/>
<path d="M768.964 109.839H763.209C762.71 109.839 762.305 109.434 762.305 108.935V104.405C762.305 103.906 762.71 103.501 763.209 103.501H768.964C769.463 103.501 769.868 103.906 769.868 104.405V108.935C769.868 109.434 769.463 109.839 768.964 109.839Z" fill="#5A96FC"/>
<path d="M817.432 78.3815L822.085 73.7285H826.739" stroke="#5A96FC" stroke-miterlimit="10" stroke-linecap="round" stroke-linejoin="round"/>
<path d="M834.636 278.998H814.282C812.014 278.998 810.175 277.159 810.175 274.891V254.139C810.175 251.871 812.014 250.032 814.282 250.032H831.901C831.901 250.032 831.901 252.754 831.901 253.202C831.901 260.266 831.901 268.897 831.901 275.961C831.901 278.815 834.636 278.998 834.636 278.998Z" stroke="#5A96FC" stroke-miterlimit="10"/>
<path d="M831.901 275.96C831.901 278.815 834.636 278.998 834.636 278.998C834.636 278.998 837.491 279.307 837.491 275.96H833.848C833.848 275.96 831.901 275.861 831.901 275.96Z" stroke="#5A96FC" stroke-miterlimit="10"/>
<path d="M813.526 274.249H827.866" stroke="#5A96FC" stroke-miterlimit="10" stroke-linecap="round" stroke-linejoin="round"/>
<path d="M813.526 271.02H827.866" stroke="#5A96FC" stroke-miterlimit="10" stroke-linecap="round" stroke-linejoin="round"/>
<path d="M813.526 262.792H827.866" stroke="#5A96FC" stroke-miterlimit="10" stroke-linecap="round" stroke-linejoin="round"/>
<path d="M813.526 259.569H827.866" stroke="#5A96FC" stroke-miterlimit="10" stroke-linecap="round" stroke-linejoin="round"/>
<path d="M813.526 266.909H827.866" stroke="#5A96FC" stroke-miterlimit="10" stroke-linecap="round" stroke-linejoin="round"/>
<path d="M826.923 256.142H819.49C818.766 256.142 818.178 255.555 818.178 254.83C818.178 254.106 818.765 253.518 819.49 253.518H826.923C827.647 253.518 828.235 254.105 828.235 254.83C828.234 255.555 827.647 256.142 826.923 256.142Z" fill="#5A96FC"/>
<path d="M831.523 267.955C833.219 267.955 834.594 266.581 834.594 264.884C834.594 263.188 833.219 261.813 831.523 261.813C829.827 261.813 828.452 263.188 828.452 264.884C828.452 266.581 829.827 267.955 831.523 267.955Z" fill="#005DFF" stroke="white" stroke-miterlimit="10" stroke-linecap="round" stroke-linejoin="round"/>
<path d="M833.562 267.627L836.198 271.007" stroke="white" stroke-miterlimit="10" stroke-linecap="round" stroke-linejoin="round"/>
<path d="M728.207 415.241C729.268 409.935 736.721 402.423 745.716 405.16C757.919 408.874 754.205 421.608 754.205 421.608" fill="#005DFF"/>
<path d="M728.207 415.241C729.268 409.935 736.721 402.423 745.716 405.16C757.919 408.874 754.205 421.608 754.205 421.608" stroke="white" stroke-miterlimit="10"/>
<path d="M747.307 425.854C747.307 425.854 753.143 418.426 760.571 420.018Z" fill="#005DFF"/>
<path d="M747.307 425.854C747.307 425.854 753.143 418.426 760.571 420.018" stroke="white" stroke-miterlimit="10"/>
<path d="M717.607 385.819V379.752" stroke="white" stroke-miterlimit="10" stroke-linecap="round" stroke-linejoin="round"/>
<path d="M714.574 382.785H720.64" stroke="white" stroke-miterlimit="10" stroke-linecap="round" stroke-linejoin="round"/>
<path d="M611.751 84.3076C611.751 84.3076 622.42 91.9606 630.305 101.238" stroke="white" stroke-miterlimit="10" stroke-linecap="round" stroke-linejoin="round"/>
<path d="M633.784 105.877C633.784 105.877 638.886 111.675 641.438 114.922" stroke="white" stroke-miterlimit="10" stroke-linecap="round" stroke-linejoin="round"/>
<path d="M569.607 135.524C577.567 135.524 584.019 129.072 584.019 121.112C584.019 113.153 577.567 106.7 569.607 106.7C561.648 106.7 555.195 113.153 555.195 121.112C555.195 129.072 561.648 135.524 569.607 135.524Z" fill="#FF7E1A"/>
<path d="M568.872 127.616L573.564 125.957C573.899 125.839 574.084 125.486 573.987 125.145C573.807 124.514 573.661 123.398 574.161 121.932C575.149 119.036 575.229 115.478 572.796 113.578C568.84 110.489 562.131 113.33 562.595 119.235C562.889 122.981 566.154 124.302 566.689 124.615C567.991 125.379 568.872 127.616 568.872 127.616Z" stroke="white" stroke-miterlimit="10"/>
<path d="M569.992 126.858L567.872 120.975L568.361 121.099C569.079 121.281 569.839 121.042 570.324 120.482L570.713 120.033L572.82 125.879" stroke="white" stroke-miterlimit="10"/>
<path d="M568.872 127.617L569.49 129.426C569.718 130.093 570.715 130.345 571.708 129.987L573.501 129.341C574.486 128.986 575.093 128.165 574.856 127.507L574.211 125.718L568.872 127.617Z" stroke="white" stroke-miterlimit="10"/>
<path d="M695.955 203.383C703.915 203.383 710.367 196.93 710.367 188.971C710.367 181.011 703.915 174.559 695.955 174.559C687.996 174.559 681.543 181.011 681.543 188.971C681.543 196.93 687.996 203.383 695.955 203.383Z" fill="#FFE873"/>
<path d="M695.902 196.016L700.594 194.357C700.929 194.239 701.114 193.886 701.017 193.545C700.837 192.914 700.691 191.798 701.191 190.332C702.179 187.436 702.259 183.878 699.826 181.978C695.87 178.889 689.161 181.73 689.625 187.635C689.919 191.381 693.184 192.702 693.719 193.015C695.022 193.779 695.902 196.016 695.902 196.016Z" stroke="black" stroke-miterlimit="10"/>
<path d="M697.023 195.258L694.903 189.375L695.392 189.499C696.11 189.681 696.87 189.442 697.355 188.882L697.744 188.433L699.851 194.279" stroke="black" stroke-miterlimit="10"/>
<path d="M695.902 196.016L696.52 197.825C696.748 198.492 697.745 198.744 698.738 198.386L700.531 197.74C701.516 197.385 702.123 196.564 701.886 195.906L701.241 194.117L695.902 196.016Z" stroke="black" stroke-miterlimit="10"/>
<path d="M674.348 436.909C674.348 436.909 675.944 428.4 684.985 426.272C694.026 424.145 701.472 436.909 701.472 436.909" fill="#005DFF"/>
<path d="M674.348 436.909C674.348 436.909 675.944 428.4 684.985 426.272C694.026 424.145 701.472 436.909 701.472 436.909" stroke="white" stroke-miterlimit="10"/>
<path d="M513.675 123.772H502.373C501.527 123.772 500.841 123.086 500.841 122.24V110.938C500.841 110.092 501.527 109.406 502.373 109.406H504.659C504.659 109.406 503.87 114.289 507.946 114.289C511.364 114.289 510.707 109.406 510.707 109.406H513.676C514.522 109.406 515.208 110.092 515.208 110.938V114.026C515.208 114.026 519.779 113.237 519.779 117.05C519.779 120.468 515.208 120.205 515.208 120.205V122.24C515.207 123.086 514.521 123.772 513.675 123.772Z" stroke="#5A96FC" stroke-miterlimit="10"/>
<path d="M592.31 436.987H581.008C580.162 436.987 579.476 436.301 579.476 435.455V424.153C579.476 423.307 580.162 422.621 581.008 422.621H583.294C583.294 422.621 582.505 427.504 586.581 427.504C589.999 427.504 589.342 422.621 589.342 422.621H592.311C593.157 422.621 593.843 423.307 593.843 424.153V427.241C593.843 427.241 598.414 426.452 598.414 430.265C598.414 433.683 593.843 433.42 593.843 433.42V435.455C593.842 436.301 593.156 436.987 592.31 436.987Z" stroke="#5A96FC" stroke-miterlimit="10"/>
<path d="M869.297 356.205H880.599C881.445 356.205 882.131 356.891 882.131 357.737V369.039C882.131 369.885 881.445 370.571 880.599 370.571H878.313C878.313 370.571 879.102 365.688 875.026 365.688C871.608 365.688 872.265 370.571 872.265 370.571H869.296C868.45 370.571 867.764 369.885 867.764 369.039V365.951C867.764 365.951 863.193 366.74 863.193 362.927C863.193 359.509 867.764 359.772 867.764 359.772V357.737C867.764 356.891 868.45 356.205 869.297 356.205Z" stroke="#5A96FC" stroke-miterlimit="10"/>
<path d="M747.905 132.182L749.635 132.155C749.834 132.152 749.994 131.988 749.991 131.788L749.952 129.276C749.949 129.077 749.785 128.917 749.585 128.92L747.798 128.948C747.582 128.131 747.225 127.372 746.757 126.696L748.033 125.354C748.17 125.209 748.165 124.981 748.02 124.843L746.199 123.113C746.054 122.976 745.826 122.981 745.688 123.126L744.367 124.516C743.742 124.163 743.06 123.9 742.338 123.746V121.788C742.338 121.589 742.176 121.427 741.977 121.427H739.465C739.265 121.427 739.104 121.589 739.104 121.788V123.794C738.298 123.991 737.546 124.324 736.872 124.766L735.384 123.34C735.24 123.202 735.011 123.207 734.873 123.351L733.135 125.164C732.997 125.308 733.002 125.537 733.146 125.675L734.632 127.1C734.253 127.732 733.97 128.427 733.799 129.166L731.762 129.198C731.563 129.201 731.403 129.365 731.406 129.565L731.445 132.077C731.448 132.276 731.612 132.436 731.812 132.433L733.791 132.402C733.975 133.216 734.297 133.977 734.73 134.661L733.409 136.051C733.272 136.196 733.277 136.424 733.422 136.562L735.243 138.292C735.388 138.429 735.616 138.424 735.754 138.279L737.029 136.937C737.662 137.33 738.36 137.627 739.104 137.809V139.617C739.104 139.817 739.266 139.978 739.465 139.978H741.977C742.177 139.978 742.338 139.816 742.338 139.617V137.857C743.225 137.668 744.05 137.316 744.783 136.833L746.014 138.013C746.158 138.151 746.387 138.146 746.525 138.002L748.263 136.189C748.401 136.045 748.396 135.816 748.252 135.678L747.021 134.498C747.441 133.794 747.744 133.013 747.905 132.182ZM745.007 132.567C744.573 133.593 743.773 134.426 742.77 134.903C742.629 134.97 742.485 135.029 742.337 135.081C741.864 135.248 741.355 135.34 740.824 135.34C740.215 135.34 739.634 135.219 739.103 135.001C739.046 134.978 738.99 134.953 738.935 134.928C737.924 134.464 737.113 133.641 736.666 132.621C736.628 132.534 736.592 132.447 736.559 132.357C736.382 131.871 736.285 131.347 736.285 130.8C736.285 130.207 736.4 129.641 736.607 129.121C736.619 129.09 736.631 129.059 736.644 129.028C737.079 128.002 737.881 127.17 738.884 126.695C738.956 126.661 739.029 126.629 739.103 126.598C739.634 126.38 740.215 126.259 740.824 126.259C741.355 126.259 741.864 126.351 742.337 126.518C742.368 126.529 742.399 126.54 742.43 126.552C743.476 126.948 744.337 127.719 744.85 128.701C744.899 128.796 744.946 128.892 744.988 128.99C745.229 129.544 745.364 130.156 745.364 130.799C745.364 131.296 745.283 131.775 745.135 132.223C745.096 132.341 745.055 132.455 745.007 132.567Z" fill="white"/>
<path d="M451.238 355.501L452.968 355.474C453.167 355.471 453.327 355.307 453.324 355.107L453.285 352.595C453.282 352.396 453.118 352.236 452.918 352.239L451.13 352.267C450.914 351.45 450.557 350.691 450.089 350.015L451.365 348.673C451.502 348.528 451.497 348.3 451.352 348.162L449.531 346.432C449.386 346.295 449.158 346.3 449.02 346.445L447.699 347.835C447.074 347.482 446.392 347.219 445.67 347.065V345.107C445.67 344.908 445.508 344.746 445.309 344.746H442.797C442.597 344.746 442.436 344.908 442.436 345.107V347.113C441.63 347.31 440.878 347.643 440.204 348.085L438.716 346.659C438.572 346.521 438.343 346.526 438.205 346.67L436.467 348.483C436.329 348.627 436.334 348.856 436.478 348.994L437.964 350.419C437.585 351.051 437.302 351.746 437.131 352.485L435.094 352.517C434.895 352.52 434.735 352.684 434.738 352.884L434.777 355.396C434.78 355.595 434.944 355.755 435.144 355.752L437.123 355.721C437.307 356.535 437.629 357.296 438.062 357.98L436.741 359.37C436.604 359.515 436.609 359.743 436.754 359.881L438.575 361.611C438.72 361.748 438.948 361.743 439.086 361.598L440.361 360.256C440.994 360.649 441.693 360.946 442.436 361.128V362.936C442.436 363.135 442.598 363.297 442.797 363.297H445.309C445.509 363.297 445.67 363.135 445.67 362.936V361.176C446.557 360.987 447.382 360.635 448.115 360.152L449.346 361.332C449.49 361.47 449.719 361.465 449.857 361.321L451.595 359.508C451.733 359.364 451.728 359.135 451.584 358.997L450.353 357.817C450.773 357.113 451.076 356.332 451.238 355.501ZM448.34 355.886C447.906 356.912 447.106 357.745 446.103 358.222C445.962 358.289 445.818 358.348 445.67 358.4C445.197 358.567 444.688 358.659 444.157 358.659C443.548 358.659 442.967 358.538 442.436 358.32C442.379 358.297 442.323 358.272 442.268 358.247C441.257 357.783 440.446 356.96 439.999 355.94C439.961 355.853 439.925 355.766 439.892 355.676C439.715 355.19 439.618 354.666 439.618 354.119C439.618 353.526 439.733 352.96 439.94 352.44C439.952 352.409 439.964 352.378 439.977 352.347C440.412 351.321 441.214 350.489 442.217 350.014C442.289 349.98 442.362 349.948 442.436 349.917C442.967 349.699 443.548 349.578 444.157 349.578C444.688 349.578 445.197 349.67 445.67 349.837C445.701 349.848 445.732 349.859 445.763 349.871C446.809 350.267 447.67 351.038 448.183 352.02C448.232 352.115 448.279 352.211 448.321 352.309C448.562 352.863 448.697 353.475 448.697 354.118C448.697 354.615 448.616 355.094 448.468 355.542C448.429 355.66 448.387 355.775 448.34 355.886Z" fill="white"/>
<path d="M604.901 235.137L607.306 235.1C607.583 235.096 607.805 234.867 607.8 234.59L607.746 231.099C607.742 230.822 607.513 230.6 607.236 230.605L604.751 230.644C604.45 229.509 603.955 228.453 603.304 227.513L605.077 225.647C605.268 225.446 605.26 225.128 605.059 224.937L602.528 222.532C602.327 222.341 602.009 222.349 601.818 222.55L599.982 224.483C599.114 223.993 598.166 223.627 597.161 223.413V220.691C597.161 220.414 596.936 220.189 596.659 220.189H593.167C592.89 220.189 592.665 220.414 592.665 220.691V223.48C591.545 223.754 590.499 224.217 589.562 224.832L587.494 222.849C587.294 222.657 586.976 222.664 586.784 222.864L584.368 225.385C584.176 225.585 584.183 225.903 584.383 226.095L586.449 228.075C585.923 228.954 585.529 229.92 585.291 230.947L582.459 230.991C582.182 230.995 581.96 231.224 581.965 231.501L582.019 234.992C582.023 235.269 582.252 235.491 582.529 235.486L585.28 235.443C585.536 236.574 585.983 237.632 586.586 238.583L584.75 240.516C584.559 240.717 584.567 241.035 584.768 241.226L587.299 243.631C587.5 243.822 587.818 243.814 588.009 243.613L589.781 241.748C590.661 242.294 591.632 242.707 592.666 242.96V245.473C592.666 245.75 592.891 245.975 593.168 245.975H596.66C596.937 245.975 597.162 245.75 597.162 245.473V243.027C598.394 242.764 599.542 242.274 600.561 241.604L602.272 243.244C602.472 243.436 602.79 243.429 602.982 243.229L605.398 240.708C605.59 240.508 605.583 240.19 605.383 239.998L603.672 238.357C604.255 237.378 604.677 236.293 604.901 235.137ZM600.873 235.673C600.27 237.1 599.157 238.258 597.763 238.92C597.568 239.013 597.367 239.095 597.161 239.168C596.503 239.401 595.795 239.528 595.058 239.528C594.211 239.528 593.403 239.36 592.665 239.057C592.586 239.025 592.508 238.99 592.431 238.955C591.025 238.311 589.898 237.166 589.276 235.748C589.223 235.627 589.173 235.506 589.128 235.381C588.882 234.706 588.747 233.977 588.747 233.217C588.747 232.392 588.907 231.606 589.194 230.884C589.211 230.841 589.227 230.797 589.245 230.755C589.85 229.329 590.964 228.173 592.359 227.512C592.459 227.465 592.561 227.42 592.664 227.378C593.402 227.075 594.21 226.907 595.057 226.907C595.795 226.907 596.502 227.035 597.16 227.267C597.203 227.282 597.246 227.298 597.289 227.314C598.743 227.864 599.94 228.936 600.653 230.301C600.722 230.432 600.786 230.566 600.845 230.703C601.18 231.474 601.367 232.323 601.367 233.217C601.367 233.909 601.254 234.573 601.049 235.196C600.997 235.358 600.939 235.518 600.873 235.673Z" fill="white"/>
</g>
<defs>
<clipPath id="clip0_11_2">
<rect width="900" height="500" fill="white"/>
</clipPath>
</defs>
</svg>
